<svg width="54" height="55" viewBox="0 0 54 55" fill="none" xmlns="http://www.w3.org/2000/svg">
<circle cx="27" cy="27.5" r="27" fill="#FFD70E"/>
<path d="M44.86 18.0847C44.6825 17.6572 44.3428 17.3175 43.9153 17.14C43.705 17.0503 43.4791 17.0028 43.2505 17H34.503C34.039 17 33.5941 17.1843 33.266 17.5124C32.9379 17.8405 32.7535 18.2855 32.7535 18.7495C32.7535 19.2135 32.9379 19.6585 33.266 19.9866C33.5941 20.3147 34.039 20.499 34.503 20.499H39.0342L29.2546 30.2787L23.4987 24.5053C23.3361 24.3413 23.1426 24.2112 22.9294 24.1224C22.7162 24.0336 22.4875 23.9878 22.2566 23.9878C22.0256 23.9878 21.797 24.0336 21.5838 24.1224C21.3706 24.2112 21.1771 24.3413 21.0145 24.5053L10.5175 35.0023C10.3535 35.1649 10.2234 35.3584 10.1345 35.5716C10.0457 35.7848 10 36.0135 10 36.2444C10 36.4754 10.0457 36.704 10.1345 36.9172C10.2234 37.1304 10.3535 37.3239 10.5175 37.4866C10.6801 37.6505 10.8736 37.7807 11.0868 37.8695C11.3 37.9583 11.5287 38.0041 11.7596 38.0041C11.9906 38.0041 12.2193 37.9583 12.4325 37.8695C12.6456 37.7807 12.8391 37.6505 13.0018 37.4866L22.2566 28.2142L28.0124 33.9876C28.1751 34.1516 28.3686 34.2817 28.5818 34.3705C28.7949 34.4593 29.0236 34.5051 29.2546 34.5051C29.4855 34.5051 29.7142 34.4593 29.9274 34.3705C30.1406 34.2817 30.3341 34.1516 30.4967 33.9876L41.501 22.9658V27.497C41.501 27.961 41.6853 28.4059 42.0134 28.734C42.3415 29.0621 42.7865 29.2464 43.2505 29.2464C43.7145 29.2464 44.1595 29.0621 44.4876 28.734C44.8157 28.4059 45 27.961 45 27.497V18.7495C44.9972 18.5209 44.9497 18.295 44.86 18.0847Z" fill="#3461FF"/>
</svg>
