<svg width="54" height="54" viewBox="0 0 54 54" fill="none" xmlns="http://www.w3.org/2000/svg">
<circle cx="27" cy="27" r="27" fill="#FFD70E"/>
<path d="M31.933 16.0933C32.0665 16.1707 32.1698 16.291 32.226 16.4347C32.2822 16.5783 32.288 16.7368 32.2426 16.8842L29.7867 24.8639H34.3179C34.4511 24.8639 34.5814 24.9028 34.6926 24.9759C34.8039 25.0491 34.8914 25.1532 34.9441 25.2754C34.9969 25.3977 35.0128 25.5327 34.9897 25.6639C34.9666 25.795 34.9056 25.9165 34.8143 26.0134L23.9056 37.6039C23.8 37.7161 23.6596 37.7893 23.5071 37.8115C23.3546 37.8337 23.1992 37.8036 23.066 37.7261C22.9328 37.6486 22.8298 37.5283 22.7738 37.3848C22.7178 37.2412 22.712 37.083 22.7574 36.9357L25.2133 28.9547H20.6821C20.5489 28.9547 20.4186 28.9158 20.3074 28.8427C20.1961 28.7695 20.1086 28.6654 20.0559 28.5432C20.0031 28.4209 19.9872 28.2859 20.0103 28.1547C20.0334 28.0236 20.0944 27.9021 20.1857 27.8052L31.0944 16.2147C31.1998 16.1026 31.3401 16.0295 31.4923 16.0072C31.6446 15.9849 31.7999 16.0148 31.933 16.092V16.0933Z" fill="#3461FF"/>
</svg>
